# xmcd CD database file
#
# Track frame offsets:
#	150
#	75276
#	93755
#
# Disc length: 1496 seconds
#
# Revision: 0
# Processed by: cddbd v1.5PL3 Copyright (c) Steve Scherf et al.
# Submitted via: CDex 1.50beta10
#
DISCID=0e05d603
DTITLE=F&C - With You〜みつめていたい〜 サウンドトラック
DYEAR=1998
DGENRE=Game
TTITLE0=DataTrack
TTITLE1=くにたけみゆき/みつめていたい
TTITLE2=みつめていたい Karaoke
EXTD=YEAR: 1998
EXTT0=
EXTT1=
EXTT2=
PLAYORDER=
